<svg id="svg4764" xmlns="http://www.w3.org/2000/svg" viewBox="0 0 9 10"><defs><style>.cls-1{fill:none;stroke:#fff;stroke-linecap:round;stroke-linejoin:round;stroke-width:2px;opacity:0.3;isolation:isolate;}.cls-2{fill:#444;}</style></defs><title>airport-12</title><g id="layer1"><g id="airport-12"><g id="g21733"><path id="path14232" class="cls-1" d="M10,6.43V7L7,6.5v2L8,9.56V10H5V9.56L6,8.5v-2L3,7V6.43L6,5V3c0-.44.06-1,0.5-1S7,2.56,7,3V5Z" transform="translate(-2 -1)"/><path id="path7712-0-5" class="cls-2" d="M10,6.43V7L7,6.5v2L8,9.56V10H5V9.56L6,8.5v-2L3,7V6.43L6,5V3c0-.44.06-1,0.5-1S7,2.56,7,3V5Z" transform="translate(-2 -1)"/></g></g></g></svg>