<?xml version="1.0" encoding="utf-8"?>
<!-- Generator: Adobe Illustrator 19.2.0, SVG Export Plug-In . SVG Version: 6.00 Build 0)  -->
<svg version="1.1"
	 id="svg4764" xmlns:cc="http://creativecommons.org/ns#" xmlns:dc="http://purl.org/dc/elements/1.1/" xmlns:inkscape="http://www.inkscape.org/namespaces/inkscape" xmlns:rdf="http://www.w3.org/1999/02/22-rdf-syntax-ns#" xmlns:svg="http://www.w3.org/2000/svg"
	 xmlns="http://www.w3.org/2000/svg" xmlns:xlink="http://www.w3.org/1999/xlink" x="0px" y="0px" width="12px" height="12px"
	 viewBox="0 0 12 12" enable-background="new 0 0 12 12" xml:space="preserve">
<rect id="canvas" display="none" fill="none" width="12" height="12"/>
<g>
	<line fill="#231F20" x1="8" y1="3.4" x2="3.1" y2="7.3"/>
	<rect x="2.4" y="5" transform="matrix(0.7796 -0.6262 0.6262 0.7796 -2.1337 4.6471)" fill="#231F20" width="6.3" height="0.6"/>
</g>
<g>
	<line fill="#231F20" x1="8.3" y1="1.5" x2="7.8" y2="3.5"/>
	<polygon fill="#231F20" points="8.2,3.6 7.5,3.5 8,1.5 8.7,1.6 	"/>
</g>
<g>
	<line fill="#231F20" x1="1.3" y1="7" x2="3.3" y2="7.2"/>
	<polygon fill="#231F20" points="3.4,6.9 3.3,7.6 1.2,7.4 1.3,6.7 	"/>
</g>
<g>
	<line fill="#231F20" x1="4.1" y1="8.7" x2="9" y2="4.8"/>
	<rect x="3.4" y="6.4" transform="matrix(0.7796 -0.6262 0.6262 0.7796 -2.7796 5.5912)" fill="#231F20" width="6.3" height="0.6"/>
</g>
<g>
	<line fill="#231F20" x1="3.8" y1="10.6" x2="4.3" y2="8.6"/>
	<polygon fill="#231F20" points="3.9,8.5 4.6,8.6 4.1,10.6 3.4,10.5 	"/>
</g>
<g>
	<line fill="#231F20" x1="10.8" y1="5.1" x2="8.8" y2="4.9"/>
	<polygon fill="#231F20" points="8.7,5.2 8.8,4.5 10.9,4.7 10.8,5.4 	"/>
</g>
</svg>
